<svg xmlns="http://www.w3.org/2000/svg" x="0px" y="0px"
width="100" height="100"
viewBox="0 0 48 48"
style=" fill:#000000;"><rect width="12" height="27" x="11" y="8" fill="#90caf9"></rect><rect width="3" height="3" x="18" y="10" fill="#1e88e5"></rect><rect width="3" height="3" x="13" y="10" fill="#1e88e5"></rect><rect width="3" height="3" x="18" y="15" fill="#1e88e5"></rect><rect width="3" height="3" x="13" y="15" fill="#1e88e5"></rect><rect width="12" height="24" x="23" y="13" fill="#3949ab" transform="rotate(-180 29 25)"></rect><polygon fill="#90a4ae" points="48.088,41 -0.088,41 7.675,23.682 11.325,25.318 6.088,37 41.912,37 36.675,25.318 40.325,23.682"></polygon><rect width="3" height="3" x="25" y="15" fill="#9fa8da" transform="rotate(-180 26.5 16.5)"></rect><rect width="3" height="3" x="25" y="20" fill="#9fa8da" transform="rotate(-180 26.5 21.5)"></rect><rect width="3" height="3" x="25" y="25" fill="#9fa8da" transform="rotate(-180 26.5 26.5)"></rect><rect width="3" height="3" x="25" y="30" fill="#9fa8da" transform="rotate(-180 26.5 31.5)"></rect><rect width="3" height="3" x="30" y="15" fill="#9fa8da" transform="rotate(-180 31.5 16.5)"></rect><rect width="12" height="17" x="30" y="20" fill="#ffca28"></rect><rect width="17" height="17" x="6" y="20" fill="#c5cae9"></rect><rect width="3" height="3" x="37" y="32" fill="#fb8c00"></rect><rect width="3" height="3" x="32" y="32" fill="#fb8c00"></rect><rect width="3" height="3" x="37" y="27" fill="#fb8c00"></rect><rect width="3" height="3" x="32" y="27" fill="#fb8c00"></rect><rect width="3" height="3" x="37" y="22" fill="#fb8c00"></rect><rect width="3" height="3" x="32" y="22" fill="#fb8c00"></rect><rect width="3" height="3" x="13" y="32" fill="#5c6bc0"></rect><rect width="3" height="3" x="8" y="32" fill="#5c6bc0"></rect><rect width="3" height="3" x="13" y="27" fill="#5c6bc0"></rect><rect width="3" height="3" x="8" y="27" fill="#5c6bc0"></rect><rect width="3" height="3" x="13" y="22" fill="#5c6bc0"></rect><rect width="3" height="3" x="18" y="32" fill="#5c6bc0"></rect><rect width="3" height="3" x="18" y="27" fill="#5c6bc0"></rect><rect width="3" height="3" x="18" y="22" fill="#5c6bc0"></rect><rect width="3" height="3" x="8" y="22" fill="#5c6bc0"></rect></svg>